<svg width="37" height="79" viewBox="0 0 37 79" fill="none" xmlns="http://www.w3.org/2000/svg">
<g id="tform_logovetor">
<path id="Vector 2" d="M20.8219 15.1476C17.67 16.8013 14.9541 16.5883 11.8274 14.8974C10.3746 14.1117 8.47415 15.052 8.47415 16.7036V27.7339C8.47415 28.8385 7.57872 29.7339 6.47415 29.7339H3C1.89543 29.7339 1 30.6293 1 31.7339V40.1711C1 41.2756 1.89543 42.1711 3 42.1711H6.47681C7.58034 42.1711 8.47534 43.0649 8.47681 44.1684L8.50318 63.9877C8.5033 64.0821 8.51027 64.1765 8.52311 64.2701C8.77907 66.1345 8.77169 67.7247 10.4177 70.5047C13.4645 75.6508 16.9375 77.931 24.3567 78C26.7425 77.8913 28.615 77.9629 30.7063 77.5821C32.2518 77.3006 32.5147 75.3379 31.5132 74.1276C29.5264 71.7267 29.0954 69.1802 29.5971 66.5654C29.8757 65.1135 28.8058 63.6883 27.3707 63.333C25.5547 62.8834 24.5284 61.639 24.3567 58.8089V44.1711C24.3567 43.0665 25.2522 42.1711 26.3567 42.1711H33.2282C34.3328 42.1711 35.2282 41.2756 35.2282 40.1711V31.7339C35.2282 30.6293 34.3328 29.7339 33.2282 29.7339H26.3567C25.2522 29.7339 24.3567 28.8385 24.3567 27.7339V16.9987C24.3567 15.2956 22.3301 14.3564 20.8219 15.1476Z" fill="white" stroke="white"/>
<path id="Ellipse 1" d="M35.4477 69.288C35.728 70.5173 35.7271 71.6596 35.5211 72.5045C35.307 73.3828 34.9213 73.7821 34.5668 73.8581C34.2124 73.9341 33.6891 73.7297 33.113 73.0208C32.5589 72.3389 32.0616 71.3034 31.7814 70.0741C31.5011 68.8448 31.5019 67.7026 31.7079 66.8577C31.9221 65.9793 32.3078 65.58 32.6622 65.504C33.0166 65.428 33.54 65.6324 34.116 66.3413C34.6701 67.0233 35.1674 68.0587 35.4477 69.288Z" fill="white" stroke="white"/>
<path id="Vector 3" d="M21.2757 10.9062C17.3325 13.8296 14.653 13.6314 10.4521 10.3654C10.0485 10.0516 9.96132 9.47764 10.2425 9.05069L12.9755 4.90074L14.5327 2.53628C15.3229 1.33631 17.0834 1.33678 17.8736 2.53675L21.6845 8.32338C22.2401 9.16694 22.0871 10.3047 21.2757 10.9062Z" fill="white" stroke="white"/>
</g>
</svg>
